<svg width="24" height="24" viewBox="0 0 24 24" fill="none" xmlns="http://www.w3.org/2000/svg">
<g clip-path="url(#clip0_57_6780)">
<path d="M14.1988 12.0198L23.5439 2.67443C24.1521 2.06655 24.1521 1.08369 23.5439 0.475808C22.936 -0.132073 21.9532 -0.132073 21.3453 0.475808L11.9999 9.82122L2.65475 0.475808C2.04658 -0.132073 1.06401 -0.132073 0.456124 0.475808C-0.152041 1.08369 -0.152041 2.06655 0.456124 2.67443L9.80126 12.0198L0.456124 21.3652C-0.152041 21.9731 -0.152041 22.956 0.456124 23.5639C0.759068 23.8671 1.15739 24.0194 1.55543 24.0194C1.95348 24.0194 2.35152 23.8671 2.65475 23.5639L11.9999 14.2185L21.3453 23.5639C21.6485 23.8671 22.0466 24.0194 22.4446 24.0194C22.8427 24.0194 23.2407 23.8671 23.5439 23.5639C24.1521 22.956 24.1521 21.9731 23.5439 21.3652L14.1988 12.0198Z" fill="white"/>
</g>
<defs>
<clipPath id="clip0_57_6780">
<rect width="24" height="24" fill="white"/>
</clipPath>
</defs>
</svg>
