<svg width="131" height="32" viewBox="0 0 131 32" fill="none" xmlns="http://www.w3.org/2000/svg">
<path d="M48.582 19.966L46.818 18.184C46.326 18.64 45.828 19 45.324 19.264C44.832 19.528 44.226 19.66 43.506 19.66C42.966 19.66 42.468 19.558 42.012 19.354C41.568 19.138 41.184 18.85 40.86 18.49C40.548 18.13 40.302 17.71 40.122 17.23C39.942 16.75 39.852 16.24 39.852 15.7V15.664C39.852 15.124 39.942 14.62 40.122 14.152C40.302 13.672 40.554 13.252 40.878 12.892C41.202 12.532 41.586 12.25 42.03 12.046C42.486 11.842 42.978 11.74 43.506 11.74C44.142 11.74 44.712 11.866 45.216 12.118C45.732 12.37 46.236 12.718 46.728 13.162L48.492 11.128C48.204 10.84 47.892 10.576 47.556 10.336C47.22 10.096 46.854 9.892 46.458 9.724C46.062 9.556 45.618 9.424 45.126 9.328C44.646 9.232 44.112 9.184 43.524 9.184C42.552 9.184 41.664 9.358 40.86 9.706C40.056 10.042 39.366 10.51 38.79 11.11C38.214 11.698 37.764 12.388 37.44 13.18C37.116 13.96 36.954 14.8 36.954 15.7V15.736C36.954 16.636 37.116 17.482 37.44 18.274C37.764 19.066 38.214 19.756 38.79 20.344C39.366 20.92 40.05 21.376 40.842 21.712C41.634 22.048 42.492 22.216 43.416 22.216C44.028 22.216 44.58 22.162 45.072 22.054C45.564 21.958 46.014 21.814 46.422 21.622C46.842 21.418 47.226 21.178 47.574 20.902C47.922 20.626 48.258 20.314 48.582 19.966ZM56.3271 15.034V12.172C55.5111 12.136 54.8631 12.316 54.3831 12.712C53.9031 13.108 53.5251 13.636 53.2491 14.296V12.352H50.5131V22H53.2491V18.436C53.2491 17.272 53.5071 16.414 54.0231 15.862C54.5511 15.31 55.2711 15.034 56.1831 15.034H56.3271ZM67.2165 12.352H64.3725L62.2665 18.922L60.0705 12.352H57.1725L60.9525 22.036C60.8325 22.276 60.7005 22.438 60.5565 22.522C60.4245 22.618 60.2385 22.666 59.9985 22.666C59.8185 22.666 59.6205 22.63 59.4045 22.558C59.2005 22.486 59.0085 22.396 58.8285 22.288L57.9105 24.268C58.2585 24.472 58.6245 24.634 59.0085 24.754C59.3925 24.874 59.8365 24.934 60.3405 24.934C60.7485 24.934 61.1085 24.886 61.4205 24.79C61.7325 24.694 62.0085 24.538 62.2485 24.322C62.5005 24.106 62.7285 23.824 62.9325 23.476C63.1365 23.14 63.3285 22.726 63.5085 22.234L67.2165 12.352ZM78.9635 17.194V17.158C78.9635 16.354 78.8375 15.646 78.5855 15.034C78.3455 14.41 78.0215 13.888 77.6135 13.468C77.2055 13.036 76.7375 12.712 76.2095 12.496C75.6815 12.28 75.1355 12.172 74.5715 12.172C73.8515 12.172 73.2515 12.322 72.7715 12.622C72.3035 12.91 71.9015 13.282 71.5655 13.738V12.352H68.8295V24.88H71.5655V20.74C71.8895 21.124 72.2855 21.46 72.7535 21.748C73.2335 22.036 73.8395 22.18 74.5715 22.18C75.1475 22.18 75.6995 22.072 76.2275 21.856C76.7555 21.64 77.2175 21.322 77.6135 20.902C78.0215 20.47 78.3455 19.948 78.5855 19.336C78.8375 18.712 78.9635 17.998 78.9635 17.194ZM76.2275 17.194C76.2275 17.602 76.1615 17.968 76.0295 18.292C75.9095 18.616 75.7415 18.898 75.5255 19.138C75.3095 19.366 75.0575 19.546 74.7695 19.678C74.4935 19.798 74.1935 19.858 73.8695 19.858C73.5455 19.858 73.2395 19.798 72.9515 19.678C72.6755 19.546 72.4295 19.366 72.2135 19.138C72.0095 18.898 71.8415 18.616 71.7095 18.292C71.5895 17.956 71.5295 17.59 71.5295 17.194V17.158C71.5295 16.762 71.5895 16.402 71.7095 16.078C71.8415 15.742 72.0095 15.46 72.2135 15.232C72.4295 14.992 72.6755 14.812 72.9515 14.692C73.2395 14.56 73.5455 14.494 73.8695 14.494C74.1935 14.494 74.4935 14.56 74.7695 14.692C75.0575 14.812 75.3095 14.992 75.5255 15.232C75.7415 15.46 75.9095 15.742 76.0295 16.078C76.1615 16.402 76.2275 16.762 76.2275 17.158V17.194ZM86.394 21.604V19.408C85.974 19.636 85.524 19.75 85.044 19.75C84.456 19.75 84.162 19.438 84.162 18.814V14.692H86.43V12.352H84.162V9.886H81.426V12.352H80.274V14.692H81.426V19.264C81.426 19.828 81.492 20.296 81.624 20.668C81.768 21.028 81.96 21.322 82.2 21.55C82.452 21.778 82.746 21.934 83.082 22.018C83.43 22.114 83.814 22.162 84.234 22.162C84.69 22.162 85.092 22.108 85.44 22C85.788 21.904 86.106 21.772 86.394 21.604ZM98.4187 17.194V17.158C98.4187 16.462 98.2867 15.814 98.0227 15.214C97.7587 14.602 97.3927 14.074 96.9247 13.63C96.4687 13.174 95.9227 12.82 95.2867 12.568C94.6507 12.304 93.9607 12.172 93.2167 12.172C92.4607 12.172 91.7647 12.304 91.1287 12.568C90.4927 12.832 89.9407 13.192 89.4727 13.648C89.0047 14.104 88.6387 14.638 88.3747 15.25C88.1107 15.85 87.9787 16.498 87.9787 17.194V17.23C87.9787 17.926 88.1107 18.58 88.3747 19.192C88.6387 19.792 88.9987 20.32 89.4547 20.776C89.9227 21.22 90.4747 21.574 91.1107 21.838C91.7467 22.09 92.4367 22.216 93.1807 22.216C93.9367 22.216 94.6327 22.084 95.2687 21.82C95.9047 21.556 96.4567 21.196 96.9247 20.74C97.3927 20.284 97.7587 19.756 98.0227 19.156C98.2867 18.544 98.4187 17.89 98.4187 17.194ZM95.7187 17.23C95.7187 17.59 95.6587 17.932 95.5387 18.256C95.4307 18.568 95.2687 18.844 95.0527 19.084C94.8367 19.324 94.5727 19.516 94.2607 19.66C93.9607 19.792 93.6127 19.858 93.2167 19.858C92.8327 19.858 92.4847 19.786 92.1727 19.642C91.8727 19.498 91.6087 19.306 91.3807 19.066C91.1527 18.814 90.9787 18.532 90.8587 18.22C90.7387 17.896 90.6787 17.554 90.6787 17.194V17.158C90.6787 16.798 90.7327 16.462 90.8407 16.15C90.9607 15.826 91.1287 15.544 91.3447 15.304C91.5607 15.064 91.8187 14.878 92.1187 14.746C92.4307 14.602 92.7847 14.53 93.1807 14.53C93.5527 14.53 93.8947 14.602 94.2067 14.746C94.5187 14.89 94.7887 15.088 95.0167 15.34C95.2447 15.58 95.4187 15.862 95.5387 16.186C95.6587 16.498 95.7187 16.834 95.7187 17.194V17.23ZM112.154 22L106.79 14.746L111.92 9.4H108.572L103.46 14.908V9.4H100.688V22H103.46V18.148L104.918 16.636L108.824 22H112.154ZM122.548 17.446V17.41C122.548 16.726 122.452 16.072 122.26 15.448C122.08 14.812 121.792 14.254 121.396 13.774C121.012 13.282 120.526 12.892 119.938 12.604C119.35 12.316 118.654 12.172 117.85 12.172C117.142 12.172 116.494 12.304 115.906 12.568C115.33 12.832 114.832 13.192 114.412 13.648C113.992 14.104 113.662 14.638 113.422 15.25C113.194 15.862 113.08 16.51 113.08 17.194V17.23C113.08 17.974 113.206 18.652 113.458 19.264C113.71 19.864 114.058 20.386 114.502 20.83C114.958 21.274 115.492 21.616 116.104 21.856C116.728 22.096 117.4 22.216 118.12 22.216C118.996 22.216 119.758 22.06 120.406 21.748C121.054 21.424 121.606 20.98 122.062 20.416L120.496 19.03C120.112 19.378 119.74 19.63 119.38 19.786C119.02 19.942 118.612 20.02 118.156 20.02C117.544 20.02 117.028 19.864 116.608 19.552C116.2 19.228 115.93 18.754 115.798 18.13H122.512C122.524 17.998 122.53 17.884 122.53 17.788C122.542 17.692 122.548 17.578 122.548 17.446ZM119.884 16.42H115.762C115.87 15.796 116.098 15.298 116.446 14.926C116.806 14.554 117.274 14.368 117.85 14.368C118.426 14.368 118.888 14.56 119.236 14.944C119.584 15.316 119.8 15.808 119.884 16.42ZM130.005 21.604V19.408C129.585 19.636 129.135 19.75 128.655 19.75C128.067 19.75 127.773 19.438 127.773 18.814V14.692H130.041V12.352H127.773V9.886H125.037V12.352H123.885V14.692H125.037V19.264C125.037 19.828 125.103 20.296 125.235 20.668C125.379 21.028 125.571 21.322 125.811 21.55C126.063 21.778 126.357 21.934 126.693 22.018C127.041 22.114 127.425 22.162 127.845 22.162C128.301 22.162 128.703 22.108 129.051 22C129.399 21.904 129.717 21.772 130.005 21.604Z" fill="white"/>
<rect width="32" height="32" rx="10" fill="url(#paint0_linear_10_136)"/>
<circle cx="16" cy="16" r="8" stroke="#1B1A21" stroke-width="2"/>
<defs>
<linearGradient id="paint0_linear_10_136" x1="10.4727" y1="5.58767e-07" x2="37.2552" y2="5.26436" gradientUnits="userSpaceOnUse">
<stop stop-color="#EB1484"/>
<stop offset="0.9999" stop-color="#C91CC3"/>
<stop offset="1" stop-color="#C81CC5"/>
<stop offset="1" stop-color="#C81CC5"/>
</linearGradient>
</defs>
</svg>
