<svg width="258" height="38" viewBox="0 0 258 38" fill="none" xmlns="http://www.w3.org/2000/svg">
<path d="M14.08 8V7.96C14.08 6.97333 13.9 6.06 13.54 5.22C13.18 4.36667 12.6667 3.62667 12 3C11.3467 2.37333 10.56 1.88667 9.64 1.54C8.73333 1.18 7.73333 0.999999 6.64 0.999999H1.18V15H6.64C7.73333 15 8.73333 14.82 9.64 14.46C10.56 14.1 11.3467 13.6067 12 12.98C12.6667 12.3533 13.18 11.6133 13.54 10.76C13.9 9.90667 14.08 8.98667 14.08 8ZM10.86 8.04C10.86 8.66667 10.7533 9.23333 10.54 9.74C10.34 10.2467 10.0533 10.6867 9.68 11.06C9.32 11.4333 8.88 11.72 8.36 11.92C7.84 12.12 7.26667 12.22 6.64 12.22H4.26V3.78H6.64C7.26667 3.78 7.84 3.88667 8.36 4.1C8.88 4.3 9.32 4.58667 9.68 4.96C10.0533 5.33333 10.34 5.78 10.54 6.3C10.7533 6.82 10.86 7.38667 10.86 8V8.04ZM19.7645 3.1V0.4H16.5645V3.1H19.7645ZM19.6845 15V4.28H16.6445V15H19.6845ZM30.3997 11.74V11.7C30.3997 11.2067 30.2997 10.7867 30.0997 10.44C29.8997 10.0933 29.6464 9.8 29.3397 9.56C29.033 9.32 28.6864 9.12 28.2997 8.96C27.913 8.78667 27.533 8.64 27.1597 8.52C26.8664 8.42667 26.5864 8.33333 26.3197 8.24C26.0664 8.14667 25.8397 8.05333 25.6397 7.96C25.4397 7.85333 25.2797 7.74667 25.1597 7.64C25.0397 7.52 24.9797 7.38667 24.9797 7.24V7.2C24.9797 6.98667 25.073 6.81333 25.2597 6.68C25.4464 6.53333 25.7264 6.46 26.0997 6.46C26.4864 6.46 26.933 6.55333 27.4397 6.74C27.9464 6.91333 28.4664 7.15333 28.9997 7.46L30.1597 5.36C29.573 4.97333 28.9264 4.67333 28.2197 4.46C27.5264 4.23333 26.8397 4.12 26.1597 4.12C25.613 4.12 25.0997 4.19333 24.6197 4.34C24.153 4.48667 23.7397 4.70667 23.3797 5C23.033 5.29333 22.753 5.65333 22.5397 6.08C22.3397 6.49333 22.2397 6.97333 22.2397 7.52V7.56C22.2397 8.08 22.333 8.52 22.5197 8.88C22.7197 9.24 22.973 9.54667 23.2797 9.8C23.5864 10.04 23.9264 10.24 24.2997 10.4C24.6864 10.5467 25.0664 10.6733 25.4397 10.78C25.733 10.8733 26.013 10.96 26.2797 11.04C26.5464 11.12 26.7797 11.2067 26.9797 11.3C27.193 11.38 27.3597 11.48 27.4797 11.6C27.5997 11.72 27.6597 11.86 27.6597 12.02V12.06C27.6597 12.3 27.553 12.4933 27.3397 12.64C27.1397 12.7867 26.8197 12.86 26.3797 12.86C25.873 12.86 25.3264 12.7533 24.7397 12.54C24.1664 12.3267 23.5864 12.0067 22.9997 11.58L21.6997 13.58C22.4197 14.14 23.173 14.5533 23.9597 14.82C24.7597 15.0733 25.5397 15.2 26.2997 15.2C26.873 15.2 27.4064 15.1333 27.8997 15C28.4064 14.8533 28.8464 14.64 29.2197 14.36C29.593 14.08 29.8797 13.7267 30.0797 13.3C30.293 12.86 30.3997 12.34 30.3997 11.74ZM42.0188 13.28L40.2388 11.48C39.8654 11.8267 39.4854 12.1067 39.0988 12.32C38.7254 12.52 38.2854 12.62 37.7788 12.62C37.3654 12.62 36.9921 12.5467 36.6588 12.4C36.3254 12.24 36.0388 12.0267 35.7988 11.76C35.5588 11.4933 35.3721 11.18 35.2388 10.82C35.1188 10.46 35.0588 10.0733 35.0588 9.66V9.62C35.0588 9.22 35.1188 8.84667 35.2388 8.5C35.3721 8.14 35.5521 7.82667 35.7788 7.56C36.0188 7.29333 36.2921 7.08667 36.5988 6.94C36.9188 6.78 37.2721 6.7 37.6588 6.7C38.2054 6.7 38.6588 6.80667 39.0188 7.02C39.3921 7.23333 39.7521 7.52 40.0988 7.88L41.9588 5.88C41.4521 5.32 40.8654 4.88 40.1988 4.56C39.5321 4.24 38.6921 4.08 37.6788 4.08C36.8521 4.08 36.0921 4.22667 35.3988 4.52C34.7188 4.81333 34.1321 5.21333 33.6388 5.72C33.1454 6.22667 32.7588 6.82 32.4788 7.5C32.1988 8.18 32.0588 8.9 32.0588 9.66V9.7C32.0588 10.46 32.1988 11.18 32.4788 11.86C32.7588 12.5267 33.1454 13.1133 33.6388 13.62C34.1321 14.1133 34.7188 14.5067 35.3988 14.8C36.0921 15.0933 36.8388 15.24 37.6388 15.24C38.7054 15.24 39.5721 15.06 40.2388 14.7C40.9054 14.3267 41.4988 13.8533 42.0188 13.28ZM55.0845 9.66V9.62C55.0845 8.84667 54.9379 8.12667 54.6445 7.46C54.3512 6.78 53.9445 6.19333 53.4245 5.7C52.9179 5.19333 52.3112 4.8 51.6045 4.52C50.8979 4.22667 50.1312 4.08 49.3045 4.08C48.4645 4.08 47.6912 4.22667 46.9845 4.52C46.2779 4.81333 45.6645 5.21333 45.1445 5.72C44.6245 6.22667 44.2179 6.82 43.9245 7.5C43.6312 8.16667 43.4845 8.88667 43.4845 9.66V9.7C43.4845 10.4733 43.6312 11.2 43.9245 11.88C44.2179 12.5467 44.6179 13.1333 45.1245 13.64C45.6445 14.1333 46.2579 14.5267 46.9645 14.82C47.6712 15.1 48.4379 15.24 49.2645 15.24C50.1045 15.24 50.8779 15.0933 51.5845 14.8C52.2912 14.5067 52.9045 14.1067 53.4245 13.6C53.9445 13.0933 54.3512 12.5067 54.6445 11.84C54.9379 11.16 55.0845 10.4333 55.0845 9.66ZM52.0845 9.7C52.0845 10.1 52.0179 10.48 51.8845 10.84C51.7645 11.1867 51.5845 11.4933 51.3445 11.76C51.1045 12.0267 50.8112 12.24 50.4645 12.4C50.1312 12.5467 49.7445 12.62 49.3045 12.62C48.8779 12.62 48.4912 12.54 48.1445 12.38C47.8112 12.22 47.5179 12.0067 47.2645 11.74C47.0112 11.46 46.8179 11.1467 46.6845 10.8C46.5512 10.44 46.4845 10.06 46.4845 9.66V9.62C46.4845 9.22 46.5445 8.84667 46.6645 8.5C46.7979 8.14 46.9845 7.82667 47.2245 7.56C47.4645 7.29333 47.7512 7.08667 48.0845 6.94C48.4312 6.78 48.8245 6.7 49.2645 6.7C49.6779 6.7 50.0579 6.78 50.4045 6.94C50.7512 7.1 51.0512 7.32 51.3045 7.6C51.5579 7.86667 51.7512 8.18 51.8845 8.54C52.0179 8.88667 52.0845 9.26 52.0845 9.66V9.7ZM67.5258 4.28H64.3658L61.9458 11.46L59.5458 4.28H56.3258L60.5458 15.08H63.3058L67.5258 4.28ZM79.278 9.94V9.9C79.278 9.14 79.1713 8.41333 78.958 7.72C78.758 7.01333 78.438 6.39333 77.998 5.86C77.5713 5.31333 77.0313 4.88 76.378 4.56C75.7246 4.24 74.9513 4.08 74.058 4.08C73.2713 4.08 72.5513 4.22667 71.898 4.52C71.258 4.81333 70.7046 5.21333 70.238 5.72C69.7713 6.22667 69.4046 6.82 69.138 7.5C68.8846 8.18 68.758 8.9 68.758 9.66V9.7C68.758 10.5267 68.898 11.28 69.178 11.96C69.458 12.6267 69.8446 13.2067 70.338 13.7C70.8446 14.1933 71.438 14.5733 72.118 14.84C72.8113 15.1067 73.558 15.24 74.358 15.24C75.3313 15.24 76.178 15.0667 76.898 14.72C77.618 14.36 78.2313 13.8667 78.738 13.24L76.998 11.7C76.5713 12.0867 76.158 12.3667 75.758 12.54C75.358 12.7133 74.9046 12.8 74.398 12.8C73.718 12.8 73.1446 12.6267 72.678 12.28C72.2246 11.92 71.9246 11.3933 71.778 10.7H79.238C79.2513 10.5533 79.258 10.4267 79.258 10.32C79.2713 10.2133 79.278 10.0867 79.278 9.94ZM76.318 8.8H71.738C71.858 8.10667 72.1113 7.55333 72.498 7.14C72.898 6.72667 73.418 6.52 74.058 6.52C74.698 6.52 75.2113 6.73333 75.598 7.16C75.9846 7.57333 76.2246 8.12 76.318 8.8ZM88.0036 7.26V4.08C87.0969 4.04 86.3769 4.24 85.8436 4.68C85.3103 5.12 84.8903 5.70667 84.5836 6.44V4.28H81.5436V15H84.5836V11.04C84.5836 9.74667 84.8703 8.79333 85.4436 8.18C86.0303 7.56667 86.8303 7.26 87.8436 7.26H88.0036ZM89.063 16.98L89.323 18.24C90.5096 18.2267 91.423 17.9267 92.063 17.34C92.703 16.7667 93.023 15.82 93.023 14.5V11.8H89.783V15H91.023C91.1296 16.1733 90.4763 16.8333 89.063 16.98ZM111.062 13.28L109.282 11.48C108.908 11.8267 108.528 12.1067 108.142 12.32C107.768 12.52 107.328 12.62 106.822 12.62C106.408 12.62 106.035 12.5467 105.702 12.4C105.368 12.24 105.082 12.0267 104.842 11.76C104.602 11.4933 104.415 11.18 104.282 10.82C104.162 10.46 104.102 10.0733 104.102 9.66V9.62C104.102 9.22 104.162 8.84667 104.282 8.5C104.415 8.14 104.595 7.82667 104.822 7.56C105.062 7.29333 105.335 7.08667 105.642 6.94C105.962 6.78 106.315 6.7 106.702 6.7C107.248 6.7 107.702 6.80667 108.062 7.02C108.435 7.23333 108.795 7.52 109.142 7.88L111.002 5.88C110.495 5.32 109.908 4.88 109.242 4.56C108.575 4.24 107.735 4.08 106.722 4.08C105.895 4.08 105.135 4.22667 104.442 4.52C103.762 4.81333 103.175 5.21333 102.682 5.72C102.188 6.22667 101.802 6.82 101.522 7.5C101.242 8.18 101.102 8.9 101.102 9.66V9.7C101.102 10.46 101.242 11.18 101.522 11.86C101.802 12.5267 102.188 13.1133 102.682 13.62C103.175 14.1133 103.762 14.5067 104.442 14.8C105.135 15.0933 105.882 15.24 106.682 15.24C107.748 15.24 108.615 15.06 109.282 14.7C109.948 14.3267 110.542 13.8533 111.062 13.28ZM124.128 9.66V9.62C124.128 8.84667 123.981 8.12667 123.688 7.46C123.394 6.78 122.988 6.19333 122.468 5.7C121.961 5.19333 121.354 4.8 120.648 4.52C119.941 4.22667 119.174 4.08 118.348 4.08C117.508 4.08 116.734 4.22667 116.028 4.52C115.321 4.81333 114.708 5.21333 114.188 5.72C113.668 6.22667 113.261 6.82 112.968 7.5C112.674 8.16667 112.528 8.88667 112.528 9.66V9.7C112.528 10.4733 112.674 11.2 112.968 11.88C113.261 12.5467 113.661 13.1333 114.168 13.64C114.688 14.1333 115.301 14.5267 116.008 14.82C116.714 15.1 117.481 15.24 118.308 15.24C119.148 15.24 119.921 15.0933 120.628 14.8C121.334 14.5067 121.948 14.1067 122.468 13.6C122.988 13.0933 123.394 12.5067 123.688 11.84C123.981 11.16 124.128 10.4333 124.128 9.66ZM121.128 9.7C121.128 10.1 121.061 10.48 120.928 10.84C120.808 11.1867 120.628 11.4933 120.388 11.76C120.148 12.0267 119.854 12.24 119.508 12.4C119.174 12.5467 118.788 12.62 118.348 12.62C117.921 12.62 117.534 12.54 117.188 12.38C116.854 12.22 116.561 12.0067 116.308 11.74C116.054 11.46 115.861 11.1467 115.728 10.8C115.594 10.44 115.528 10.06 115.528 9.66V9.62C115.528 9.22 115.588 8.84667 115.708 8.5C115.841 8.14 116.028 7.82667 116.268 7.56C116.508 7.29333 116.794 7.08667 117.128 6.94C117.474 6.78 117.868 6.7 118.308 6.7C118.721 6.7 119.101 6.78 119.448 6.94C119.794 7.1 120.094 7.32 120.348 7.6C120.601 7.86667 120.794 8.18 120.928 8.54C121.061 8.88667 121.128 9.26 121.128 9.66V9.7ZM129.509 15V0.4H126.469V15H129.509ZM135.544 15V0.4H132.504V15H135.544ZM148.399 9.94V9.9C148.399 9.14 148.292 8.41333 148.079 7.72C147.879 7.01333 147.559 6.39333 147.119 5.86C146.692 5.31333 146.152 4.88 145.499 4.56C144.846 4.24 144.072 4.08 143.179 4.08C142.392 4.08 141.672 4.22667 141.019 4.52C140.379 4.81333 139.826 5.21333 139.359 5.72C138.892 6.22667 138.526 6.82 138.259 7.5C138.006 8.18 137.879 8.9 137.879 9.66V9.7C137.879 10.5267 138.019 11.28 138.299 11.96C138.579 12.6267 138.966 13.2067 139.459 13.7C139.966 14.1933 140.559 14.5733 141.239 14.84C141.932 15.1067 142.679 15.24 143.479 15.24C144.452 15.24 145.299 15.0667 146.019 14.72C146.739 14.36 147.352 13.8667 147.859 13.24L146.119 11.7C145.692 12.0867 145.279 12.3667 144.879 12.54C144.479 12.7133 144.026 12.8 143.519 12.8C142.839 12.8 142.266 12.6267 141.799 12.28C141.346 11.92 141.046 11.3933 140.899 10.7H148.359C148.372 10.5533 148.379 10.4267 148.379 10.32C148.392 10.2133 148.399 10.0867 148.399 9.94ZM145.439 8.8H140.859C140.979 8.10667 141.232 7.55333 141.619 7.14C142.019 6.72667 142.539 6.52 143.179 6.52C143.819 6.52 144.332 6.73333 144.719 7.16C145.106 7.57333 145.346 8.12 145.439 8.8ZM160.105 13.28L158.325 11.48C157.951 11.8267 157.571 12.1067 157.185 12.32C156.811 12.52 156.371 12.62 155.865 12.62C155.451 12.62 155.078 12.5467 154.745 12.4C154.411 12.24 154.125 12.0267 153.885 11.76C153.645 11.4933 153.458 11.18 153.325 10.82C153.205 10.46 153.145 10.0733 153.145 9.66V9.62C153.145 9.22 153.205 8.84667 153.325 8.5C153.458 8.14 153.638 7.82667 153.865 7.56C154.105 7.29333 154.378 7.08667 154.685 6.94C155.005 6.78 155.358 6.7 155.745 6.7C156.291 6.7 156.745 6.80667 157.105 7.02C157.478 7.23333 157.838 7.52 158.185 7.88L160.045 5.88C159.538 5.32 158.951 4.88 158.285 4.56C157.618 4.24 156.778 4.08 155.765 4.08C154.938 4.08 154.178 4.22667 153.485 4.52C152.805 4.81333 152.218 5.21333 151.725 5.72C151.231 6.22667 150.845 6.82 150.565 7.5C150.285 8.18 150.145 8.9 150.145 9.66V9.7C150.145 10.46 150.285 11.18 150.565 11.86C150.845 12.5267 151.231 13.1133 151.725 13.62C152.218 14.1133 152.805 14.5067 153.485 14.8C154.178 15.0933 154.925 15.24 155.725 15.24C156.791 15.24 157.658 15.06 158.325 14.7C158.991 14.3267 159.585 13.8533 160.105 13.28ZM168.11 14.56V12.12C167.644 12.3733 167.144 12.5 166.61 12.5C165.957 12.5 165.63 12.1533 165.63 11.46V6.88H168.15V4.28H165.63V1.54H162.59V4.28H161.31V6.88H162.59V11.96C162.59 12.5867 162.664 13.1067 162.81 13.52C162.97 13.92 163.184 14.2467 163.45 14.5C163.73 14.7533 164.057 14.9267 164.43 15.02C164.817 15.1267 165.244 15.18 165.71 15.18C166.217 15.18 166.664 15.12 167.05 15C167.437 14.8933 167.79 14.7467 168.11 14.56ZM169.551 16.98L169.811 18.24C170.998 18.2267 171.911 17.9267 172.551 17.34C173.191 16.7667 173.511 15.82 173.511 14.5V11.8H170.271V15H171.511C171.618 16.1733 170.965 16.8333 169.551 16.98ZM191.33 15V8.78C191.33 7.32667 190.95 6.19333 190.19 5.38C189.43 4.56667 188.217 4.16 186.55 4.16C185.643 4.16 184.87 4.24 184.23 4.4C183.59 4.56 182.977 4.76667 182.39 5.02L183.15 7.34C183.643 7.15333 184.11 7.01333 184.55 6.92C185.003 6.81333 185.523 6.76 186.11 6.76C186.87 6.76 187.443 6.92667 187.83 7.26C188.217 7.59333 188.41 8.08 188.41 8.72V8.9C188.023 8.76667 187.623 8.66 187.21 8.58C186.81 8.5 186.337 8.46 185.79 8.46C185.15 8.46 184.563 8.53333 184.03 8.68C183.51 8.81333 183.057 9.02 182.67 9.3C182.297 9.58 182.003 9.93333 181.79 10.36C181.577 10.7867 181.47 11.2933 181.47 11.88V11.92C181.47 12.4533 181.563 12.9267 181.75 13.34C181.95 13.74 182.217 14.08 182.55 14.36C182.883 14.64 183.27 14.8533 183.71 15C184.163 15.1333 184.643 15.2 185.15 15.2C185.897 15.2 186.53 15.08 187.05 14.84C187.57 14.5867 188.017 14.2533 188.39 13.84V15H191.33ZM188.45 11.22C188.45 11.78 188.23 12.2333 187.79 12.58C187.363 12.9267 186.79 13.1 186.07 13.1C185.577 13.1 185.177 12.9867 184.87 12.76C184.563 12.5333 184.41 12.2133 184.41 11.8V11.76C184.41 11.28 184.597 10.9133 184.97 10.66C185.343 10.4067 185.857 10.28 186.51 10.28C186.883 10.28 187.23 10.32 187.55 10.4C187.883 10.4667 188.183 10.56 188.45 10.68V11.22ZM203.766 15V8.06C203.766 6.82 203.446 5.84667 202.806 5.14C202.179 4.43333 201.286 4.08 200.126 4.08C199.739 4.08 199.393 4.12667 199.086 4.22C198.779 4.31333 198.499 4.44 198.246 4.6C197.993 4.76 197.759 4.94667 197.546 5.16C197.346 5.36 197.159 5.57333 196.986 5.8V4.28H193.946V15H196.986V9.02C196.986 8.3 197.153 7.76 197.486 7.4C197.833 7.02667 198.299 6.84 198.886 6.84C199.473 6.84 199.926 7.02667 200.246 7.4C200.566 7.76 200.726 8.3 200.726 9.02V15H203.766ZM217.187 15V0.4H214.147V5.68C213.787 5.25333 213.34 4.88 212.807 4.56C212.287 4.24 211.62 4.08 210.807 4.08C210.167 4.08 209.554 4.2 208.967 4.44C208.38 4.68 207.86 5.04 207.407 5.52C206.967 5.98667 206.607 6.56667 206.327 7.26C206.06 7.94 205.927 8.72667 205.927 9.62V9.66C205.927 10.5533 206.06 11.3467 206.327 12.04C206.607 12.72 206.974 13.3 207.427 13.78C207.88 14.2467 208.4 14.6 208.987 14.84C209.574 15.08 210.18 15.2 210.807 15.2C211.607 15.2 212.267 15.04 212.787 14.72C213.32 14.3867 213.774 13.9667 214.147 13.46V15H217.187ZM214.187 9.66C214.187 10.1 214.114 10.5067 213.967 10.88C213.834 11.24 213.647 11.5533 213.407 11.82C213.18 12.0733 212.907 12.2733 212.587 12.42C212.28 12.5533 211.947 12.62 211.587 12.62C211.227 12.62 210.887 12.5533 210.567 12.42C210.26 12.2733 209.987 12.0733 209.747 11.82C209.507 11.5533 209.314 11.24 209.167 10.88C209.034 10.5067 208.967 10.1 208.967 9.66V9.62C208.967 9.16667 209.034 8.76 209.167 8.4C209.314 8.04 209.507 7.73333 209.747 7.48C209.987 7.21333 210.26 7.01333 210.567 6.88C210.887 6.73333 211.227 6.66 211.587 6.66C211.947 6.66 212.28 6.73333 212.587 6.88C212.907 7.01333 213.18 7.21333 213.407 7.48C213.647 7.73333 213.834 8.04667 213.967 8.42C214.114 8.78 214.187 9.18 214.187 9.62V9.66ZM233.759 11.74V11.7C233.759 11.2067 233.659 10.7867 233.459 10.44C233.259 10.0933 233.006 9.8 232.699 9.56C232.392 9.32 232.046 9.12 231.659 8.96C231.272 8.78667 230.892 8.64 230.519 8.52C230.226 8.42667 229.946 8.33333 229.679 8.24C229.426 8.14667 229.199 8.05333 228.999 7.96C228.799 7.85333 228.639 7.74667 228.519 7.64C228.399 7.52 228.339 7.38667 228.339 7.24V7.2C228.339 6.98667 228.432 6.81333 228.619 6.68C228.806 6.53333 229.086 6.46 229.459 6.46C229.846 6.46 230.292 6.55333 230.799 6.74C231.306 6.91333 231.826 7.15333 232.359 7.46L233.519 5.36C232.932 4.97333 232.286 4.67333 231.579 4.46C230.886 4.23333 230.199 4.12 229.519 4.12C228.972 4.12 228.459 4.19333 227.979 4.34C227.512 4.48667 227.099 4.70667 226.739 5C226.392 5.29333 226.112 5.65333 225.899 6.08C225.699 6.49333 225.599 6.97333 225.599 7.52V7.56C225.599 8.08 225.692 8.52 225.879 8.88C226.079 9.24 226.332 9.54667 226.639 9.8C226.946 10.04 227.286 10.24 227.659 10.4C228.046 10.5467 228.426 10.6733 228.799 10.78C229.092 10.8733 229.372 10.96 229.639 11.04C229.906 11.12 230.139 11.2067 230.339 11.3C230.552 11.38 230.719 11.48 230.839 11.6C230.959 11.72 231.019 11.86 231.019 12.02V12.06C231.019 12.3 230.912 12.4933 230.699 12.64C230.499 12.7867 230.179 12.86 229.739 12.86C229.232 12.86 228.686 12.7533 228.099 12.54C227.526 12.3267 226.946 12.0067 226.359 11.58L225.059 13.58C225.779 14.14 226.532 14.5533 227.319 14.82C228.119 15.0733 228.899 15.2 229.659 15.2C230.232 15.2 230.766 15.1333 231.259 15C231.766 14.8533 232.206 14.64 232.579 14.36C232.952 14.08 233.239 13.7267 233.439 13.3C233.652 12.86 233.759 12.34 233.759 11.74ZM245.938 9.94V9.9C245.938 9.14 245.831 8.41333 245.618 7.72C245.418 7.01333 245.098 6.39333 244.658 5.86C244.231 5.31333 243.691 4.88 243.038 4.56C242.385 4.24 241.611 4.08 240.718 4.08C239.931 4.08 239.211 4.22667 238.558 4.52C237.918 4.81333 237.365 5.21333 236.898 5.72C236.431 6.22667 236.065 6.82 235.798 7.5C235.545 8.18 235.418 8.9 235.418 9.66V9.7C235.418 10.5267 235.558 11.28 235.838 11.96C236.118 12.6267 236.505 13.2067 236.998 13.7C237.505 14.1933 238.098 14.5733 238.778 14.84C239.471 15.1067 240.218 15.24 241.018 15.24C241.991 15.24 242.838 15.0667 243.558 14.72C244.278 14.36 244.891 13.8667 245.398 13.24L243.658 11.7C243.231 12.0867 242.818 12.3667 242.418 12.54C242.018 12.7133 241.565 12.8 241.058 12.8C240.378 12.8 239.805 12.6267 239.338 12.28C238.885 11.92 238.585 11.3933 238.438 10.7H245.898C245.911 10.5533 245.918 10.4267 245.918 10.32C245.931 10.2133 245.938 10.0867 245.938 9.94ZM242.978 8.8H238.398C238.518 8.10667 238.771 7.55333 239.158 7.14C239.558 6.72667 240.078 6.52 240.718 6.52C241.358 6.52 241.871 6.73333 242.258 7.16C242.645 7.57333 242.885 8.12 242.978 8.8ZM251.384 15V0.4H248.344V15H251.384ZM257.419 15V0.4H254.379V15H257.419ZM10.86 28.94V28.9C10.86 28.14 10.7533 27.4133 10.54 26.72C10.34 26.0133 10.02 25.3933 9.58 24.86C9.15333 24.3133 8.61333 23.88 7.96 23.56C7.30667 23.24 6.53333 23.08 5.64 23.08C4.85333 23.08 4.13333 23.2267 3.48 23.52C2.84 23.8133 2.28667 24.2133 1.82 24.72C1.35333 25.2267 0.986667 25.82 0.72 26.5C0.466667 27.18 0.34 27.9 0.34 28.66V28.7C0.34 29.5267 0.48 30.28 0.76 30.96C1.04 31.6267 1.42667 32.2067 1.92 32.7C2.42667 33.1933 3.02 33.5733 3.7 33.84C4.39333 34.1067 5.14 34.24 5.94 34.24C6.91333 34.24 7.76 34.0667 8.48 33.72C9.2 33.36 9.81333 32.8667 10.32 32.24L8.58 30.7C8.15333 31.0867 7.74 31.3667 7.34 31.54C6.94 31.7133 6.48667 31.8 5.98 31.8C5.3 31.8 4.72667 31.6267 4.26 31.28C3.80667 30.92 3.50667 30.3933 3.36 29.7H10.82C10.8333 29.5533 10.84 29.4267 10.84 29.32C10.8533 29.2133 10.86 29.0867 10.86 28.94ZM7.9 27.8H3.32C3.44 27.1067 3.69333 26.5533 4.08 26.14C4.48 25.7267 5 25.52 5.64 25.52C6.28 25.52 6.79333 25.7333 7.18 26.16C7.56667 26.5733 7.80667 27.12 7.9 27.8ZM22.9856 34L19.2056 28.5L22.8256 23.28H19.6456L17.6256 26.4L15.6256 23.28H12.3656L15.9856 28.56L12.2256 34H15.4056L17.5656 30.66L19.7256 34H22.9856ZM30.8253 33.56V31.12C30.3586 31.3733 29.8586 31.5 29.3253 31.5C28.672 31.5 28.3453 31.1533 28.3453 30.46V25.88H30.8653V23.28H28.3453V20.54H25.3053V23.28H24.0253V25.88H25.3053V30.96C25.3053 31.5867 25.3786 32.1067 25.5253 32.52C25.6853 32.92 25.8986 33.2467 26.1653 33.5C26.4453 33.7533 26.772 33.9267 27.1453 34.02C27.532 34.1267 27.9586 34.18 28.4253 34.18C28.932 34.18 29.3786 34.12 29.7653 34C30.152 33.8933 30.5053 33.7467 30.8253 33.56ZM39.5661 26.26V23.08C38.6594 23.04 37.9394 23.24 37.4061 23.68C36.8728 24.12 36.4528 24.7067 36.1461 25.44V23.28H33.1061V34H36.1461V30.04C36.1461 28.7467 36.4328 27.7933 37.0061 27.18C37.5928 26.5667 38.3928 26.26 39.4061 26.26H39.5661ZM50.6855 34V27.78C50.6855 26.3267 50.3055 25.1933 49.5455 24.38C48.7855 23.5667 47.5721 23.16 45.9055 23.16C44.9988 23.16 44.2255 23.24 43.5855 23.4C42.9455 23.56 42.3321 23.7667 41.7455 24.02L42.5055 26.34C42.9988 26.1533 43.4655 26.0133 43.9055 25.92C44.3588 25.8133 44.8788 25.76 45.4655 25.76C46.2255 25.76 46.7988 25.9267 47.1855 26.26C47.5721 26.5933 47.7655 27.08 47.7655 27.72V27.9C47.3788 27.7667 46.9788 27.66 46.5655 27.58C46.1655 27.5 45.6921 27.46 45.1455 27.46C44.5055 27.46 43.9188 27.5333 43.3855 27.68C42.8655 27.8133 42.4121 28.02 42.0255 28.3C41.6521 28.58 41.3588 28.9333 41.1455 29.36C40.9321 29.7867 40.8255 30.2933 40.8255 30.88V30.92C40.8255 31.4533 40.9188 31.9267 41.1055 32.34C41.3055 32.74 41.5721 33.08 41.9055 33.36C42.2388 33.64 42.6255 33.8533 43.0655 34C43.5188 34.1333 43.9988 34.2 44.5055 34.2C45.2521 34.2 45.8855 34.08 46.4055 33.84C46.9255 33.5867 47.3721 33.2533 47.7455 32.84V34H50.6855ZM47.8055 30.22C47.8055 30.78 47.5855 31.2333 47.1455 31.58C46.7188 31.9267 46.1455 32.1 45.4255 32.1C44.9321 32.1 44.5321 31.9867 44.2255 31.76C43.9188 31.5333 43.7655 31.2133 43.7655 30.8V30.76C43.7655 30.28 43.9521 29.9133 44.3255 29.66C44.6988 29.4067 45.2121 29.28 45.8655 29.28C46.2388 29.28 46.5855 29.32 46.9055 29.4C47.2388 29.4667 47.5388 29.56 47.8055 29.68V30.22ZM64.3814 28.66V28.62C64.3814 27.8467 64.2347 27.1267 63.9414 26.46C63.6481 25.78 63.2414 25.1933 62.7214 24.7C62.2147 24.1933 61.6081 23.8 60.9014 23.52C60.1947 23.2267 59.4281 23.08 58.6014 23.08C57.7614 23.08 56.9881 23.2267 56.2814 23.52C55.5747 23.8133 54.9614 24.2133 54.4414 24.72C53.9214 25.2267 53.5147 25.82 53.2214 26.5C52.9281 27.1667 52.7814 27.8867 52.7814 28.66V28.7C52.7814 29.4733 52.9281 30.2 53.2214 30.88C53.5147 31.5467 53.9147 32.1333 54.4214 32.64C54.9414 33.1333 55.5547 33.5267 56.2614 33.82C56.9681 34.1 57.7347 34.24 58.5614 34.24C59.4014 34.24 60.1747 34.0933 60.8814 33.8C61.5881 33.5067 62.2014 33.1067 62.7214 32.6C63.2414 32.0933 63.6481 31.5067 63.9414 30.84C64.2347 30.16 64.3814 29.4333 64.3814 28.66ZM61.3814 28.7C61.3814 29.1 61.3147 29.48 61.1814 29.84C61.0614 30.1867 60.8814 30.4933 60.6414 30.76C60.4014 31.0267 60.1081 31.24 59.7614 31.4C59.4281 31.5467 59.0414 31.62 58.6014 31.62C58.1747 31.62 57.7881 31.54 57.4414 31.38C57.1081 31.22 56.8147 31.0067 56.5614 30.74C56.3081 30.46 56.1147 30.1467 55.9814 29.8C55.8481 29.44 55.7814 29.06 55.7814 28.66V28.62C55.7814 28.22 55.8414 27.8467 55.9614 27.5C56.0947 27.14 56.2814 26.8267 56.5214 26.56C56.7614 26.2933 57.0481 26.0867 57.3814 25.94C57.7281 25.78 58.1214 25.7 58.5614 25.7C58.9747 25.7 59.3547 25.78 59.7014 25.94C60.0481 26.1 60.3481 26.32 60.6014 26.6C60.8547 26.8667 61.0481 27.18 61.1814 27.54C61.3147 27.8867 61.3814 28.26 61.3814 28.66V28.7ZM73.0427 26.26V23.08C72.136 23.04 71.416 23.24 70.8827 23.68C70.3493 24.12 69.9293 24.7067 69.6227 25.44V23.28H66.5827V34H69.6227V30.04C69.6227 28.7467 69.9093 27.7933 70.4827 27.18C71.0693 26.5667 71.8693 26.26 72.8827 26.26H73.0427ZM85.722 34V19.4H82.682V24.68C82.322 24.2533 81.8754 23.88 81.342 23.56C80.822 23.24 80.1554 23.08 79.342 23.08C78.702 23.08 78.0887 23.2 77.502 23.44C76.9154 23.68 76.3954 24.04 75.942 24.52C75.502 24.9867 75.142 25.5667 74.862 26.26C74.5954 26.94 74.462 27.7267 74.462 28.62V28.66C74.462 29.5533 74.5954 30.3467 74.862 31.04C75.142 31.72 75.5087 32.3 75.962 32.78C76.4154 33.2467 76.9354 33.6 77.522 33.84C78.1087 34.08 78.7154 34.2 79.342 34.2C80.142 34.2 80.802 34.04 81.322 33.72C81.8554 33.3867 82.3087 32.9667 82.682 32.46V34H85.722ZM82.722 28.66C82.722 29.1 82.6487 29.5067 82.502 29.88C82.3687 30.24 82.182 30.5533 81.942 30.82C81.7154 31.0733 81.442 31.2733 81.122 31.42C80.8154 31.5533 80.482 31.62 80.122 31.62C79.762 31.62 79.422 31.5533 79.102 31.42C78.7954 31.2733 78.522 31.0733 78.282 30.82C78.042 30.5533 77.8487 30.24 77.702 29.88C77.5687 29.5067 77.502 29.1 77.502 28.66V28.62C77.502 28.1667 77.5687 27.76 77.702 27.4C77.8487 27.04 78.042 26.7333 78.282 26.48C78.522 26.2133 78.7954 26.0133 79.102 25.88C79.422 25.7333 79.762 25.66 80.122 25.66C80.482 25.66 80.8154 25.7333 81.122 25.88C81.442 26.0133 81.7154 26.2133 81.942 26.48C82.182 26.7333 82.3687 27.0467 82.502 27.42C82.6487 27.78 82.722 28.18 82.722 28.62V28.66ZM91.6981 22.1V19.4H88.4981V22.1H91.6981ZM91.6181 34V23.28H88.5781V34H91.6181ZM104.293 34V27.06C104.293 25.82 103.973 24.8467 103.333 24.14C102.707 23.4333 101.813 23.08 100.653 23.08C100.267 23.08 99.9199 23.1267 99.6133 23.22C99.3066 23.3133 99.0266 23.44 98.7733 23.6C98.5199 23.76 98.2866 23.9467 98.0733 24.16C97.8733 24.36 97.6866 24.5733 97.5133 24.8V23.28H94.4733V34H97.5133V28.02C97.5133 27.3 97.6799 26.76 98.0133 26.4C98.3599 26.0267 98.8266 25.84 99.4133 25.84C99.9999 25.84 100.453 26.0267 100.773 26.4C101.093 26.76 101.253 27.3 101.253 28.02V34H104.293ZM116.154 34V27.78C116.154 26.3267 115.774 25.1933 115.014 24.38C114.254 23.5667 113.041 23.16 111.374 23.16C110.468 23.16 109.694 23.24 109.054 23.4C108.414 23.56 107.801 23.7667 107.214 24.02L107.974 26.34C108.468 26.1533 108.934 26.0133 109.374 25.92C109.828 25.8133 110.348 25.76 110.934 25.76C111.694 25.76 112.268 25.9267 112.654 26.26C113.041 26.5933 113.234 27.08 113.234 27.72V27.9C112.848 27.7667 112.448 27.66 112.034 27.58C111.634 27.5 111.161 27.46 110.614 27.46C109.974 27.46 109.388 27.5333 108.854 27.68C108.334 27.8133 107.881 28.02 107.494 28.3C107.121 28.58 106.828 28.9333 106.614 29.36C106.401 29.7867 106.294 30.2933 106.294 30.88V30.92C106.294 31.4533 106.388 31.9267 106.574 32.34C106.774 32.74 107.041 33.08 107.374 33.36C107.708 33.64 108.094 33.8533 108.534 34C108.988 34.1333 109.468 34.2 109.974 34.2C110.721 34.2 111.354 34.08 111.874 33.84C112.394 33.5867 112.841 33.2533 113.214 32.84V34H116.154ZM113.274 30.22C113.274 30.78 113.054 31.2333 112.614 31.58C112.188 31.9267 111.614 32.1 110.894 32.1C110.401 32.1 110.001 31.9867 109.694 31.76C109.388 31.5333 109.234 31.2133 109.234 30.8V30.76C109.234 30.28 109.421 29.9133 109.794 29.66C110.168 29.4067 110.681 29.28 111.334 29.28C111.708 29.28 112.054 29.32 112.374 29.4C112.708 29.4667 113.008 29.56 113.274 29.68V30.22ZM125.23 26.26V23.08C124.323 23.04 123.603 23.24 123.07 23.68C122.537 24.12 122.117 24.7067 121.81 25.44V23.28H118.77V34H121.81V30.04C121.81 28.7467 122.097 27.7933 122.67 27.18C123.257 26.5667 124.057 26.26 125.07 26.26H125.23ZM137.33 23.28H134.17L131.83 30.58L129.39 23.28H126.17L130.37 34.04C130.236 34.3067 130.09 34.4867 129.93 34.58C129.783 34.6867 129.576 34.74 129.31 34.74C129.11 34.74 128.89 34.7 128.65 34.62C128.423 34.54 128.21 34.44 128.01 34.32L126.99 36.52C127.376 36.7467 127.783 36.9267 128.21 37.06C128.636 37.1933 129.13 37.26 129.69 37.26C130.143 37.26 130.543 37.2067 130.89 37.1C131.236 36.9933 131.543 36.82 131.81 36.58C132.09 36.34 132.343 36.0267 132.57 35.64C132.796 35.2667 133.01 34.8067 133.21 34.26L137.33 23.28ZM157.878 34V20H154.838V28.62L148.278 20H145.438V34H148.478V25.1L155.258 34H157.878ZM171.899 22.8V20H161.239V34H164.319V28.58H170.999V25.78H164.319V22.8H171.899ZM184.964 22.84V20H173.364V22.84H177.624V34H180.704V22.84H184.964ZM194.872 30.74V30.7C194.872 30.2067 194.772 29.7867 194.572 29.44C194.372 29.0933 194.119 28.8 193.812 28.56C193.506 28.32 193.159 28.12 192.772 27.96C192.386 27.7867 192.006 27.64 191.632 27.52C191.339 27.4267 191.059 27.3333 190.792 27.24C190.539 27.1467 190.312 27.0533 190.112 26.96C189.912 26.8533 189.752 26.7467 189.632 26.64C189.512 26.52 189.452 26.3867 189.452 26.24V26.2C189.452 25.9867 189.546 25.8133 189.732 25.68C189.919 25.5333 190.199 25.46 190.572 25.46C190.959 25.46 191.406 25.5533 191.912 25.74C192.419 25.9133 192.939 26.1533 193.472 26.46L194.632 24.36C194.046 23.9733 193.399 23.6733 192.692 23.46C191.999 23.2333 191.312 23.12 190.632 23.12C190.086 23.12 189.572 23.1933 189.092 23.34C188.626 23.4867 188.212 23.7067 187.852 24C187.506 24.2933 187.226 24.6533 187.012 25.08C186.812 25.4933 186.712 25.9733 186.712 26.52V26.56C186.712 27.08 186.806 27.52 186.992 27.88C187.192 28.24 187.446 28.5467 187.752 28.8C188.059 29.04 188.399 29.24 188.772 29.4C189.159 29.5467 189.539 29.6733 189.912 29.78C190.206 29.8733 190.486 29.96 190.752 30.04C191.019 30.12 191.252 30.2067 191.452 30.3C191.666 30.38 191.832 30.48 191.952 30.6C192.072 30.72 192.132 30.86 192.132 31.02V31.06C192.132 31.3 192.026 31.4933 191.812 31.64C191.612 31.7867 191.292 31.86 190.852 31.86C190.346 31.86 189.799 31.7533 189.212 31.54C188.639 31.3267 188.059 31.0067 187.472 30.58L186.172 32.58C186.892 33.14 187.646 33.5533 188.432 33.82C189.232 34.0733 190.012 34.2 190.772 34.2C191.346 34.2 191.879 34.1333 192.372 34C192.879 33.8533 193.319 33.64 193.692 33.36C194.066 33.08 194.352 32.7267 194.552 32.3C194.766 31.86 194.872 31.34 194.872 30.74Z" fill="white"/>
</svg>
