<svg width="618" height="95" viewBox="0 0 618 95" fill="none" xmlns="http://www.w3.org/2000/svg">
<path d="M33.492 19.2V19.104C33.492 16.736 33.06 14.544 32.196 12.528C31.332 10.48 30.1 8.704 28.5 7.2C26.932 5.696 25.044 4.528 22.836 3.696C20.66 2.832 18.26 2.4 15.636 2.4H2.532V36H15.636C18.26 36 20.66 35.568 22.836 34.704C25.044 33.84 26.932 32.656 28.5 31.152C30.1 29.648 31.332 27.872 32.196 25.824C33.06 23.776 33.492 21.568 33.492 19.2ZM25.764 19.296C25.764 20.8 25.508 22.16 24.996 23.376C24.516 24.592 23.828 25.648 22.932 26.544C22.068 27.44 21.012 28.128 19.764 28.608C18.516 29.088 17.14 29.328 15.636 29.328H9.924V9.072H15.636C17.14 9.072 18.516 9.328 19.764 9.84C21.012 10.32 22.068 11.008 22.932 11.904C23.828 12.8 24.516 13.872 24.996 15.12C25.508 16.368 25.764 17.728 25.764 19.2V19.296ZM47.1349 7.44V0.959999H39.4549V7.44H47.1349ZM46.9429 36V10.272H39.6469V36H46.9429ZM72.6593 28.176V28.08C72.6593 26.896 72.4193 25.888 71.9393 25.056C71.4593 24.224 70.8513 23.52 70.1153 22.944C69.3793 22.368 68.5473 21.888 67.6193 21.504C66.6913 21.088 65.7793 20.736 64.8833 20.448C64.1793 20.224 63.5073 20 62.8672 19.776C62.2593 19.552 61.7153 19.328 61.2353 19.104C60.7553 18.848 60.3713 18.592 60.0833 18.336C59.7953 18.048 59.6513 17.728 59.6513 17.376V17.28C59.6513 16.768 59.8753 16.352 60.3233 16.032C60.7713 15.68 61.4433 15.504 62.3393 15.504C63.2673 15.504 64.3393 15.728 65.5553 16.176C66.7713 16.592 68.0193 17.168 69.2993 17.904L72.0833 12.864C70.6753 11.936 69.1233 11.216 67.4273 10.704C65.7633 10.16 64.1153 9.888 62.4833 9.888C61.1713 9.888 59.9393 10.064 58.7873 10.416C57.6673 10.768 56.6753 11.296 55.8113 12C54.9793 12.704 54.3073 13.568 53.7953 14.592C53.3153 15.584 53.0753 16.736 53.0753 18.048V18.144C53.0753 19.392 53.2993 20.448 53.7473 21.312C54.2273 22.176 54.8353 22.912 55.5713 23.52C56.3073 24.096 57.1233 24.576 58.0193 24.96C58.9473 25.312 59.8593 25.616 60.7553 25.872C61.4593 26.096 62.1313 26.304 62.7713 26.496C63.4113 26.688 63.9713 26.896 64.4513 27.12C64.9633 27.312 65.3633 27.552 65.6513 27.84C65.9393 28.128 66.0833 28.464 66.0833 28.848V28.944C66.0833 29.52 65.8273 29.984 65.3153 30.336C64.8353 30.688 64.0673 30.864 63.0113 30.864C61.7953 30.864 60.4833 30.608 59.0753 30.096C57.6993 29.584 56.3073 28.816 54.8993 27.792L51.7793 32.592C53.5073 33.936 55.3153 34.928 57.2033 35.568C59.1233 36.176 60.9953 36.48 62.8193 36.48C64.1953 36.48 65.4753 36.32 66.6593 36C67.8753 35.648 68.9313 35.136 69.8273 34.464C70.7233 33.792 71.4113 32.944 71.8913 31.92C72.4033 30.864 72.6593 29.616 72.6593 28.176ZM100.545 31.872L96.273 27.552C95.377 28.384 94.465 29.056 93.537 29.568C92.641 30.048 91.585 30.288 90.369 30.288C89.377 30.288 88.481 30.112 87.681 29.76C86.881 29.376 86.193 28.864 85.617 28.224C85.041 27.584 84.593 26.832 84.273 25.968C83.985 25.104 83.841 24.176 83.841 23.184V23.088C83.841 22.128 83.985 21.232 84.273 20.4C84.593 19.536 85.025 18.784 85.569 18.144C86.145 17.504 86.801 17.008 87.537 16.656C88.305 16.272 89.153 16.08 90.081 16.08C91.393 16.08 92.481 16.336 93.345 16.848C94.241 17.36 95.105 18.048 95.937 18.912L100.401 14.112C99.185 12.768 97.777 11.712 96.177 10.944C94.577 10.176 92.561 9.792 90.129 9.792C88.145 9.792 86.321 10.144 84.657 10.848C83.025 11.552 81.617 12.512 80.433 13.728C79.249 14.944 78.321 16.368 77.649 18C76.977 19.632 76.641 21.36 76.641 23.184V23.28C76.641 25.104 76.977 26.832 77.649 28.464C78.321 30.064 79.249 31.472 80.433 32.688C81.617 33.872 83.025 34.816 84.657 35.52C86.321 36.224 88.113 36.576 90.033 36.576C92.593 36.576 94.673 36.144 96.273 35.28C97.873 34.384 99.297 33.248 100.545 31.872ZM131.903 23.184V23.088C131.903 21.232 131.551 19.504 130.847 17.904C130.143 16.272 129.167 14.864 127.919 13.68C126.703 12.464 125.247 11.52 123.551 10.848C121.855 10.144 120.015 9.792 118.031 9.792C116.015 9.792 114.159 10.144 112.463 10.848C110.767 11.552 109.295 12.512 108.047 13.728C106.799 14.944 105.823 16.368 105.119 18C104.415 19.6 104.063 21.328 104.063 23.184V23.28C104.063 25.136 104.415 26.88 105.119 28.512C105.823 30.112 106.783 31.52 107.999 32.736C109.247 33.92 110.719 34.864 112.415 35.568C114.111 36.24 115.951 36.576 117.935 36.576C119.951 36.576 121.807 36.224 123.503 35.52C125.199 34.816 126.671 33.856 127.919 32.64C129.167 31.424 130.143 30.016 130.847 28.416C131.551 26.784 131.903 25.04 131.903 23.184ZM124.703 23.28C124.703 24.24 124.543 25.152 124.223 26.016C123.935 26.848 123.503 27.584 122.927 28.224C122.351 28.864 121.647 29.376 120.815 29.76C120.015 30.112 119.087 30.288 118.031 30.288C117.007 30.288 116.079 30.096 115.247 29.712C114.447 29.328 113.743 28.816 113.135 28.176C112.527 27.504 112.063 26.752 111.743 25.92C111.423 25.056 111.263 24.144 111.263 23.184V23.088C111.263 22.128 111.407 21.232 111.695 20.4C112.015 19.536 112.463 18.784 113.039 18.144C113.615 17.504 114.303 17.008 115.103 16.656C115.935 16.272 116.879 16.08 117.935 16.08C118.927 16.08 119.839 16.272 120.671 16.656C121.503 17.04 122.223 17.568 122.831 18.24C123.439 18.88 123.903 19.632 124.223 20.496C124.543 21.328 124.703 22.224 124.703 23.184V23.28ZM161.762 10.272H154.178L148.37 27.504L142.61 10.272H134.882L145.01 36.192H151.634L161.762 10.272ZM189.967 23.856V23.76C189.967 21.936 189.711 20.192 189.199 18.528C188.719 16.832 187.951 15.344 186.895 14.064C185.871 12.752 184.575 11.712 183.007 10.944C181.439 10.176 179.583 9.792 177.439 9.792C175.551 9.792 173.823 10.144 172.255 10.848C170.719 11.552 169.391 12.512 168.271 13.728C167.151 14.944 166.271 16.368 165.631 18C165.023 19.632 164.719 21.36 164.719 23.184V23.28C164.719 25.264 165.055 27.072 165.727 28.704C166.399 30.304 167.327 31.696 168.511 32.88C169.727 34.064 171.151 34.976 172.783 35.616C174.447 36.256 176.239 36.576 178.159 36.576C180.495 36.576 182.527 36.16 184.255 35.328C185.983 34.464 187.455 33.28 188.671 31.776L184.495 28.08C183.471 29.008 182.479 29.68 181.519 30.096C180.559 30.512 179.471 30.72 178.255 30.72C176.623 30.72 175.247 30.304 174.127 29.472C173.039 28.608 172.319 27.344 171.967 25.68H189.871C189.903 25.328 189.919 25.024 189.919 24.768C189.951 24.512 189.967 24.208 189.967 23.856ZM182.863 21.12H171.871C172.159 19.456 172.767 18.128 173.695 17.136C174.655 16.144 175.903 15.648 177.439 15.648C178.975 15.648 180.207 16.16 181.135 17.184C182.063 18.176 182.639 19.488 182.863 21.12ZM210.909 17.424V9.792C208.733 9.696 207.005 10.176 205.725 11.232C204.445 12.288 203.437 13.696 202.701 15.456V10.272H195.405V36H202.701V26.496C202.701 23.392 203.389 21.104 204.765 19.632C206.173 18.16 208.093 17.424 210.525 17.424H210.909ZM213.451 40.752L214.075 43.776C216.923 43.744 219.115 43.024 220.651 41.616C222.187 40.24 222.955 37.968 222.955 34.8V28.32H215.179V36H218.155C218.411 38.816 216.843 40.4 213.451 40.752ZM266.248 31.872L261.976 27.552C261.08 28.384 260.168 29.056 259.24 29.568C258.344 30.048 257.288 30.288 256.072 30.288C255.08 30.288 254.184 30.112 253.384 29.76C252.584 29.376 251.896 28.864 251.32 28.224C250.744 27.584 250.296 26.832 249.976 25.968C249.688 25.104 249.544 24.176 249.544 23.184V23.088C249.544 22.128 249.688 21.232 249.976 20.4C250.296 19.536 250.728 18.784 251.272 18.144C251.848 17.504 252.504 17.008 253.24 16.656C254.008 16.272 254.856 16.08 255.784 16.08C257.096 16.08 258.184 16.336 259.048 16.848C259.944 17.36 260.808 18.048 261.64 18.912L266.104 14.112C264.888 12.768 263.48 11.712 261.88 10.944C260.28 10.176 258.264 9.792 255.832 9.792C253.848 9.792 252.024 10.144 250.36 10.848C248.728 11.552 247.32 12.512 246.136 13.728C244.952 14.944 244.024 16.368 243.352 18C242.68 19.632 242.344 21.36 242.344 23.184V23.28C242.344 25.104 242.68 26.832 243.352 28.464C244.024 30.064 244.952 31.472 246.136 32.688C247.32 33.872 248.728 34.816 250.36 35.52C252.024 36.224 253.816 36.576 255.736 36.576C258.296 36.576 260.376 36.144 261.976 35.28C263.576 34.384 265 33.248 266.248 31.872ZM297.606 23.184V23.088C297.606 21.232 297.254 19.504 296.55 17.904C295.846 16.272 294.87 14.864 293.622 13.68C292.406 12.464 290.95 11.52 289.254 10.848C287.558 10.144 285.718 9.792 283.734 9.792C281.718 9.792 279.862 10.144 278.166 10.848C276.47 11.552 274.998 12.512 273.75 13.728C272.502 14.944 271.526 16.368 270.822 18C270.118 19.6 269.766 21.328 269.766 23.184V23.28C269.766 25.136 270.118 26.88 270.822 28.512C271.526 30.112 272.486 31.52 273.702 32.736C274.95 33.92 276.422 34.864 278.118 35.568C279.814 36.24 281.654 36.576 283.638 36.576C285.654 36.576 287.51 36.224 289.206 35.52C290.902 34.816 292.374 33.856 293.622 32.64C294.87 31.424 295.846 30.016 296.55 28.416C297.254 26.784 297.606 25.04 297.606 23.184ZM290.406 23.28C290.406 24.24 290.246 25.152 289.926 26.016C289.638 26.848 289.206 27.584 288.63 28.224C288.054 28.864 287.35 29.376 286.518 29.76C285.718 30.112 284.79 30.288 283.734 30.288C282.71 30.288 281.782 30.096 280.95 29.712C280.15 29.328 279.446 28.816 278.838 28.176C278.23 27.504 277.766 26.752 277.446 25.92C277.126 25.056 276.966 24.144 276.966 23.184V23.088C276.966 22.128 277.11 21.232 277.398 20.4C277.718 19.536 278.166 18.784 278.742 18.144C279.318 17.504 280.006 17.008 280.806 16.656C281.638 16.272 282.582 16.08 283.638 16.08C284.63 16.08 285.542 16.272 286.374 16.656C287.206 17.04 287.926 17.568 288.534 18.24C289.142 18.88 289.606 19.632 289.926 20.496C290.246 21.328 290.406 22.224 290.406 23.184V23.28ZM310.521 36V0.959999H303.225V36H310.521ZM325.005 36V0.959999H317.709V36H325.005ZM355.858 23.856V23.76C355.858 21.936 355.602 20.192 355.09 18.528C354.61 16.832 353.842 15.344 352.786 14.064C351.762 12.752 350.466 11.712 348.898 10.944C347.33 10.176 345.474 9.792 343.33 9.792C341.442 9.792 339.714 10.144 338.146 10.848C336.61 11.552 335.282 12.512 334.162 13.728C333.042 14.944 332.162 16.368 331.522 18C330.914 19.632 330.61 21.36 330.61 23.184V23.28C330.61 25.264 330.946 27.072 331.618 28.704C332.29 30.304 333.218 31.696 334.402 32.88C335.618 34.064 337.042 34.976 338.674 35.616C340.338 36.256 342.13 36.576 344.05 36.576C346.386 36.576 348.418 36.16 350.146 35.328C351.874 34.464 353.346 33.28 354.562 31.776L350.386 28.08C349.362 29.008 348.37 29.68 347.41 30.096C346.45 30.512 345.362 30.72 344.146 30.72C342.514 30.72 341.138 30.304 340.018 29.472C338.93 28.608 338.21 27.344 337.858 25.68H355.762C355.794 25.328 355.81 25.024 355.81 24.768C355.842 24.512 355.858 24.208 355.858 23.856ZM348.754 21.12H337.762C338.05 19.456 338.658 18.128 339.586 17.136C340.546 16.144 341.794 15.648 343.33 15.648C344.866 15.648 346.098 16.16 347.026 17.184C347.954 18.176 348.53 19.488 348.754 21.12ZM383.951 31.872L379.679 27.552C378.783 28.384 377.871 29.056 376.943 29.568C376.047 30.048 374.991 30.288 373.775 30.288C372.783 30.288 371.887 30.112 371.087 29.76C370.287 29.376 369.599 28.864 369.023 28.224C368.447 27.584 367.999 26.832 367.679 25.968C367.391 25.104 367.247 24.176 367.247 23.184V23.088C367.247 22.128 367.391 21.232 367.679 20.4C367.999 19.536 368.431 18.784 368.975 18.144C369.551 17.504 370.207 17.008 370.943 16.656C371.711 16.272 372.559 16.08 373.487 16.08C374.799 16.08 375.887 16.336 376.751 16.848C377.647 17.36 378.511 18.048 379.343 18.912L383.807 14.112C382.591 12.768 381.183 11.712 379.583 10.944C377.983 10.176 375.967 9.792 373.535 9.792C371.551 9.792 369.727 10.144 368.063 10.848C366.431 11.552 365.023 12.512 363.839 13.728C362.655 14.944 361.727 16.368 361.055 18C360.383 19.632 360.047 21.36 360.047 23.184V23.28C360.047 25.104 360.383 26.832 361.055 28.464C361.727 30.064 362.655 31.472 363.839 32.688C365.023 33.872 366.431 34.816 368.063 35.52C369.727 36.224 371.519 36.576 373.439 36.576C375.999 36.576 378.079 36.144 379.679 35.28C381.279 34.384 382.703 33.248 383.951 31.872ZM403.165 34.944V29.088C402.045 29.696 400.845 30 399.565 30C397.997 30 397.213 29.168 397.213 27.504V16.512H403.261V10.272H397.213V3.696H389.917V10.272H386.845V16.512H389.917V28.704C389.917 30.208 390.093 31.456 390.445 32.448C390.829 33.408 391.341 34.192 391.981 34.8C392.653 35.408 393.437 35.824 394.333 36.048C395.261 36.304 396.285 36.432 397.405 36.432C398.621 36.432 399.693 36.288 400.621 36C401.549 35.744 402.397 35.392 403.165 34.944ZM406.623 40.752L407.247 43.776C410.095 43.744 412.287 43.024 413.823 41.616C415.359 40.24 416.127 37.968 416.127 34.8V28.32H408.351V36H411.327C411.583 38.816 410.015 40.4 406.623 40.752ZM458.892 36V21.072C458.892 17.584 457.98 14.864 456.156 12.912C454.332 10.96 451.42 9.984 447.42 9.984C445.244 9.984 443.388 10.176 441.852 10.56C440.316 10.944 438.844 11.44 437.436 12.048L439.26 17.616C440.444 17.168 441.564 16.832 442.62 16.608C443.708 16.352 444.956 16.224 446.364 16.224C448.188 16.224 449.564 16.624 450.492 17.424C451.42 18.224 451.884 19.392 451.884 20.928V21.36C450.956 21.04 449.996 20.784 449.004 20.592C448.044 20.4 446.908 20.304 445.596 20.304C444.06 20.304 442.652 20.48 441.372 20.832C440.124 21.152 439.036 21.648 438.108 22.32C437.212 22.992 436.508 23.84 435.996 24.864C435.484 25.888 435.228 27.104 435.228 28.512V28.608C435.228 29.888 435.452 31.024 435.9 32.016C436.38 32.976 437.02 33.792 437.82 34.464C438.62 35.136 439.548 35.648 440.604 36C441.692 36.32 442.844 36.48 444.06 36.48C445.852 36.48 447.372 36.192 448.62 35.616C449.868 35.008 450.94 34.208 451.836 33.216V36H458.892ZM451.98 26.928C451.98 28.272 451.452 29.36 450.396 30.192C449.372 31.024 447.996 31.44 446.268 31.44C445.084 31.44 444.124 31.168 443.388 30.624C442.652 30.08 442.284 29.312 442.284 28.32V28.224C442.284 27.072 442.732 26.192 443.628 25.584C444.524 24.976 445.756 24.672 447.324 24.672C448.22 24.672 449.052 24.768 449.82 24.96C450.62 25.12 451.34 25.344 451.98 25.632V26.928ZM488.738 36V19.344C488.738 16.368 487.97 14.032 486.434 12.336C484.93 10.64 482.786 9.792 480.002 9.792C479.074 9.792 478.242 9.904 477.506 10.128C476.77 10.352 476.098 10.656 475.49 11.04C474.882 11.424 474.322 11.872 473.81 12.384C473.33 12.864 472.882 13.376 472.466 13.92V10.272H465.17V36H472.466V21.648C472.466 19.92 472.866 18.624 473.666 17.76C474.498 16.864 475.618 16.416 477.026 16.416C478.434 16.416 479.522 16.864 480.29 17.76C481.058 18.624 481.442 19.92 481.442 21.648V36H488.738ZM520.949 36V0.959999H513.653V13.632C512.789 12.608 511.717 11.712 510.437 10.944C509.189 10.176 507.589 9.792 505.637 9.792C504.101 9.792 502.629 10.08 501.221 10.656C499.813 11.232 498.565 12.096 497.477 13.248C496.421 14.368 495.557 15.76 494.885 17.424C494.245 19.056 493.925 20.944 493.925 23.088V23.184C493.925 25.328 494.245 27.232 494.885 28.896C495.557 30.528 496.437 31.92 497.525 33.072C498.613 34.192 499.861 35.04 501.269 35.616C502.677 36.192 504.133 36.48 505.637 36.48C507.557 36.48 509.141 36.096 510.389 35.328C511.669 34.528 512.757 33.52 513.653 32.304V36H520.949ZM513.749 23.184C513.749 24.24 513.573 25.216 513.221 26.112C512.901 26.976 512.453 27.728 511.877 28.368C511.333 28.976 510.677 29.456 509.909 29.808C509.173 30.128 508.373 30.288 507.509 30.288C506.645 30.288 505.829 30.128 505.061 29.808C504.325 29.456 503.669 28.976 503.093 28.368C502.517 27.728 502.053 26.976 501.701 26.112C501.381 25.216 501.221 24.24 501.221 23.184V23.088C501.221 22 501.381 21.024 501.701 20.16C502.053 19.296 502.517 18.56 503.093 17.952C503.669 17.312 504.325 16.832 505.061 16.512C505.829 16.16 506.645 15.984 507.509 15.984C508.373 15.984 509.173 16.16 509.909 16.512C510.677 16.832 511.333 17.312 511.877 17.952C512.453 18.56 512.901 19.312 513.221 20.208C513.573 21.072 513.749 22.032 513.749 23.088V23.184ZM560.722 28.176V28.08C560.722 26.896 560.482 25.888 560.002 25.056C559.522 24.224 558.914 23.52 558.178 22.944C557.442 22.368 556.61 21.888 555.682 21.504C554.754 21.088 553.842 20.736 552.946 20.448C552.242 20.224 551.57 20 550.93 19.776C550.322 19.552 549.778 19.328 549.298 19.104C548.818 18.848 548.434 18.592 548.146 18.336C547.858 18.048 547.714 17.728 547.714 17.376V17.28C547.714 16.768 547.938 16.352 548.386 16.032C548.834 15.68 549.506 15.504 550.402 15.504C551.33 15.504 552.402 15.728 553.618 16.176C554.834 16.592 556.082 17.168 557.362 17.904L560.146 12.864C558.738 11.936 557.186 11.216 555.49 10.704C553.826 10.16 552.178 9.888 550.546 9.888C549.234 9.888 548.002 10.064 546.85 10.416C545.73 10.768 544.738 11.296 543.874 12C543.042 12.704 542.37 13.568 541.858 14.592C541.378 15.584 541.138 16.736 541.138 18.048V18.144C541.138 19.392 541.362 20.448 541.81 21.312C542.29 22.176 542.898 22.912 543.634 23.52C544.37 24.096 545.186 24.576 546.082 24.96C547.01 25.312 547.922 25.616 548.818 25.872C549.522 26.096 550.194 26.304 550.834 26.496C551.474 26.688 552.034 26.896 552.514 27.12C553.026 27.312 553.426 27.552 553.714 27.84C554.002 28.128 554.146 28.464 554.146 28.848V28.944C554.146 29.52 553.89 29.984 553.378 30.336C552.898 30.688 552.13 30.864 551.074 30.864C549.858 30.864 548.546 30.608 547.138 30.096C545.762 29.584 544.37 28.816 542.962 27.792L539.842 32.592C541.57 33.936 543.378 34.928 545.266 35.568C547.186 36.176 549.058 36.48 550.882 36.48C552.258 36.48 553.538 36.32 554.722 36C555.938 35.648 556.994 35.136 557.89 34.464C558.786 33.792 559.474 32.944 559.954 31.92C560.466 30.864 560.722 29.616 560.722 28.176ZM589.952 23.856V23.76C589.952 21.936 589.696 20.192 589.184 18.528C588.704 16.832 587.936 15.344 586.88 14.064C585.856 12.752 584.56 11.712 582.992 10.944C581.424 10.176 579.568 9.792 577.424 9.792C575.536 9.792 573.808 10.144 572.24 10.848C570.704 11.552 569.376 12.512 568.256 13.728C567.136 14.944 566.256 16.368 565.616 18C565.008 19.632 564.704 21.36 564.704 23.184V23.28C564.704 25.264 565.04 27.072 565.712 28.704C566.384 30.304 567.312 31.696 568.496 32.88C569.712 34.064 571.136 34.976 572.768 35.616C574.432 36.256 576.224 36.576 578.144 36.576C580.48 36.576 582.512 36.16 584.24 35.328C585.968 34.464 587.44 33.28 588.656 31.776L584.48 28.08C583.456 29.008 582.464 29.68 581.504 30.096C580.544 30.512 579.456 30.72 578.24 30.72C576.608 30.72 575.232 30.304 574.112 29.472C573.024 28.608 572.304 27.344 571.952 25.68H589.856C589.888 25.328 589.904 25.024 589.904 24.768C589.936 24.512 589.952 24.208 589.952 23.856ZM582.848 21.12H571.856C572.144 19.456 572.752 18.128 573.68 17.136C574.64 16.144 575.888 15.648 577.424 15.648C578.96 15.648 580.192 16.16 581.12 17.184C582.048 18.176 582.624 19.488 582.848 21.12ZM603.021 36V0.959999H595.725V36H603.021ZM617.505 36V0.959999H610.209V36H617.505ZM25.764 74.856V74.76C25.764 72.936 25.508 71.192 24.996 69.528C24.516 67.832 23.748 66.344 22.692 65.064C21.668 63.752 20.372 62.712 18.804 61.944C17.236 61.176 15.38 60.792 13.236 60.792C11.348 60.792 9.62 61.144 8.052 61.848C6.516 62.552 5.188 63.512 4.068 64.728C2.948 65.944 2.068 67.368 1.428 69C0.82 70.632 0.516 72.36 0.516 74.184V74.28C0.516 76.264 0.852 78.072 1.524 79.704C2.196 81.304 3.124 82.696 4.308 83.88C5.524 85.064 6.948 85.976 8.58 86.616C10.244 87.256 12.036 87.576 13.956 87.576C16.292 87.576 18.324 87.16 20.052 86.328C21.78 85.464 23.252 84.28 24.468 82.776L20.292 79.08C19.268 80.008 18.276 80.68 17.316 81.096C16.356 81.512 15.268 81.72 14.052 81.72C12.42 81.72 11.044 81.304 9.924 80.472C8.836 79.608 8.116 78.344 7.764 76.68H25.668C25.7 76.328 25.716 76.024 25.716 75.768C25.748 75.512 25.764 75.208 25.764 74.856ZM18.66 72.12H7.668C7.956 70.456 8.564 69.128 9.492 68.136C10.452 67.144 11.7 66.648 13.236 66.648C14.772 66.648 16.004 67.16 16.932 68.184C17.86 69.176 18.436 70.488 18.66 72.12ZM54.8655 87L45.7935 73.8L54.4815 61.272H46.8495L42.0015 68.76L37.2015 61.272H29.3775L38.0655 73.944L29.0415 87H36.6735L41.8575 78.984L47.0415 87H54.8655ZM73.6808 85.944V80.088C72.5608 80.696 71.3608 81 70.0807 81C68.5128 81 67.7288 80.168 67.7288 78.504V67.512H73.7768V61.272H67.7288V54.696H60.4328V61.272H57.3608V67.512H60.4328V79.704C60.4328 81.208 60.6088 82.456 60.9608 83.448C61.3448 84.408 61.8568 85.192 62.4968 85.8C63.1688 86.408 63.9528 86.824 64.8488 87.048C65.7768 87.304 66.8008 87.432 67.9208 87.432C69.1368 87.432 70.2088 87.288 71.1368 87C72.0648 86.744 72.9128 86.392 73.6808 85.944ZM94.6586 68.424V60.792C92.4826 60.696 90.7546 61.176 89.4746 62.232C88.1946 63.288 87.1866 64.696 86.4506 66.456V61.272H79.1546V87H86.4506V77.496C86.4506 74.392 87.1386 72.104 88.5146 70.632C89.9226 69.16 91.8426 68.424 94.2746 68.424H94.6586ZM121.345 87V72.072C121.345 68.584 120.433 65.864 118.609 63.912C116.785 61.96 113.873 60.984 109.873 60.984C107.697 60.984 105.841 61.176 104.305 61.56C102.769 61.944 101.297 62.44 99.8891 63.048L101.713 68.616C102.897 68.168 104.017 67.832 105.073 67.608C106.161 67.352 107.409 67.224 108.817 67.224C110.641 67.224 112.017 67.624 112.945 68.424C113.873 69.224 114.337 70.392 114.337 71.928V72.36C113.409 72.04 112.449 71.784 111.457 71.592C110.497 71.4 109.361 71.304 108.049 71.304C106.513 71.304 105.105 71.48 103.825 71.832C102.577 72.152 101.489 72.648 100.561 73.32C99.6651 73.992 98.9611 74.84 98.4491 75.864C97.9371 76.888 97.6811 78.104 97.6811 79.512V79.608C97.6811 80.888 97.9051 82.024 98.3531 83.016C98.8331 83.976 99.4731 84.792 100.273 85.464C101.073 86.136 102.001 86.648 103.057 87C104.145 87.32 105.297 87.48 106.513 87.48C108.305 87.48 109.825 87.192 111.073 86.616C112.321 86.008 113.393 85.208 114.289 84.216V87H121.345ZM114.433 77.928C114.433 79.272 113.905 80.36 112.849 81.192C111.825 82.024 110.449 82.44 108.721 82.44C107.537 82.44 106.577 82.168 105.841 81.624C105.105 81.08 104.737 80.312 104.737 79.32V79.224C104.737 78.072 105.185 77.192 106.081 76.584C106.977 75.976 108.209 75.672 109.777 75.672C110.673 75.672 111.505 75.768 112.273 75.96C113.073 76.12 113.793 76.344 114.433 76.632V77.928ZM154.215 74.184V74.088C154.215 72.232 153.863 70.504 153.159 68.904C152.455 67.272 151.479 65.864 150.231 64.68C149.015 63.464 147.559 62.52 145.863 61.848C144.167 61.144 142.327 60.792 140.343 60.792C138.327 60.792 136.471 61.144 134.775 61.848C133.079 62.552 131.607 63.512 130.359 64.728C129.111 65.944 128.135 67.368 127.431 69C126.727 70.6 126.375 72.328 126.375 74.184V74.28C126.375 76.136 126.727 77.88 127.431 79.512C128.135 81.112 129.095 82.52 130.311 83.736C131.559 84.92 133.031 85.864 134.727 86.568C136.423 87.24 138.263 87.576 140.247 87.576C142.263 87.576 144.119 87.224 145.815 86.52C147.511 85.816 148.983 84.856 150.231 83.64C151.479 82.424 152.455 81.016 153.159 79.416C153.863 77.784 154.215 76.04 154.215 74.184ZM147.015 74.28C147.015 75.24 146.855 76.152 146.535 77.016C146.247 77.848 145.815 78.584 145.239 79.224C144.663 79.864 143.959 80.376 143.127 80.76C142.327 81.112 141.399 81.288 140.343 81.288C139.319 81.288 138.391 81.096 137.559 80.712C136.759 80.328 136.055 79.816 135.447 79.176C134.839 78.504 134.375 77.752 134.055 76.92C133.735 76.056 133.575 75.144 133.575 74.184V74.088C133.575 73.128 133.719 72.232 134.007 71.4C134.327 70.536 134.775 69.784 135.351 69.144C135.927 68.504 136.615 68.008 137.415 67.656C138.247 67.272 139.191 67.08 140.247 67.08C141.239 67.08 142.151 67.272 142.983 67.656C143.815 68.04 144.535 68.568 145.143 69.24C145.751 69.88 146.215 70.632 146.535 71.496C146.855 72.328 147.015 73.224 147.015 74.184V74.28ZM175.002 68.424V60.792C172.826 60.696 171.098 61.176 169.818 62.232C168.538 63.288 167.53 64.696 166.794 66.456V61.272H159.498V87H166.794V77.496C166.794 74.392 167.482 72.104 168.858 70.632C170.266 69.16 172.186 68.424 174.618 68.424H175.002ZM205.433 87V51.96H198.137V64.632C197.273 63.608 196.201 62.712 194.921 61.944C193.673 61.176 192.073 60.792 190.121 60.792C188.585 60.792 187.113 61.08 185.705 61.656C184.297 62.232 183.049 63.096 181.961 64.248C180.905 65.368 180.041 66.76 179.369 68.424C178.729 70.056 178.409 71.944 178.409 74.088V74.184C178.409 76.328 178.729 78.232 179.369 79.896C180.041 81.528 180.921 82.92 182.009 84.072C183.097 85.192 184.345 86.04 185.753 86.616C187.161 87.192 188.617 87.48 190.121 87.48C192.041 87.48 193.625 87.096 194.873 86.328C196.153 85.528 197.241 84.52 198.137 83.304V87H205.433ZM198.233 74.184C198.233 75.24 198.057 76.216 197.705 77.112C197.385 77.976 196.937 78.728 196.361 79.368C195.817 79.976 195.161 80.456 194.393 80.808C193.657 81.128 192.857 81.288 191.993 81.288C191.129 81.288 190.313 81.128 189.545 80.808C188.809 80.456 188.153 79.976 187.577 79.368C187.001 78.728 186.537 77.976 186.185 77.112C185.865 76.216 185.705 75.24 185.705 74.184V74.088C185.705 73 185.865 72.024 186.185 71.16C186.537 70.296 187.001 69.56 187.577 68.952C188.153 68.312 188.809 67.832 189.545 67.512C190.313 67.16 191.129 66.984 191.993 66.984C192.857 66.984 193.657 67.16 194.393 67.512C195.161 67.832 195.817 68.312 196.361 68.952C196.937 69.56 197.385 70.312 197.705 71.208C198.057 72.072 198.233 73.032 198.233 74.088V74.184ZM219.776 58.44V51.96H212.096V58.44H219.776ZM219.584 87V61.272H212.288V87H219.584ZM250.004 87V70.344C250.004 67.368 249.236 65.032 247.7 63.336C246.196 61.64 244.052 60.792 241.268 60.792C240.34 60.792 239.508 60.904 238.772 61.128C238.036 61.352 237.364 61.656 236.756 62.04C236.148 62.424 235.588 62.872 235.076 63.384C234.596 63.864 234.148 64.376 233.732 64.92V61.272H226.436V87H233.732V72.648C233.732 70.92 234.132 69.624 234.932 68.76C235.764 67.864 236.884 67.416 238.292 67.416C239.7 67.416 240.788 67.864 241.556 68.76C242.324 69.624 242.708 70.92 242.708 72.648V87H250.004ZM278.47 87V72.072C278.47 68.584 277.558 65.864 275.734 63.912C273.91 61.96 270.998 60.984 266.998 60.984C264.822 60.984 262.966 61.176 261.43 61.56C259.894 61.944 258.422 62.44 257.014 63.048L258.838 68.616C260.022 68.168 261.142 67.832 262.198 67.608C263.286 67.352 264.534 67.224 265.942 67.224C267.766 67.224 269.142 67.624 270.07 68.424C270.998 69.224 271.462 70.392 271.462 71.928V72.36C270.534 72.04 269.574 71.784 268.582 71.592C267.622 71.4 266.486 71.304 265.174 71.304C263.638 71.304 262.23 71.48 260.95 71.832C259.702 72.152 258.614 72.648 257.686 73.32C256.79 73.992 256.086 74.84 255.574 75.864C255.062 76.888 254.806 78.104 254.806 79.512V79.608C254.806 80.888 255.03 82.024 255.478 83.016C255.958 83.976 256.598 84.792 257.398 85.464C258.198 86.136 259.126 86.648 260.182 87C261.27 87.32 262.422 87.48 263.638 87.48C265.43 87.48 266.95 87.192 268.198 86.616C269.446 86.008 270.518 85.208 271.414 84.216V87H278.47ZM271.558 77.928C271.558 79.272 271.03 80.36 269.974 81.192C268.95 82.024 267.574 82.44 265.846 82.44C264.662 82.44 263.702 82.168 262.966 81.624C262.23 81.08 261.862 80.312 261.862 79.32V79.224C261.862 78.072 262.31 77.192 263.206 76.584C264.102 75.976 265.334 75.672 266.902 75.672C267.798 75.672 268.63 75.768 269.398 75.96C270.198 76.12 270.918 76.344 271.558 76.632V77.928ZM300.252 68.424V60.792C298.076 60.696 296.348 61.176 295.068 62.232C293.788 63.288 292.78 64.696 292.044 66.456V61.272H284.748V87H292.044V77.496C292.044 74.392 292.732 72.104 294.108 70.632C295.516 69.16 297.436 68.424 299.868 68.424H300.252ZM329.291 61.272H321.707L316.091 78.792L310.235 61.272H302.507L312.587 87.096C312.267 87.736 311.915 88.168 311.531 88.392C311.179 88.648 310.683 88.776 310.043 88.776C309.563 88.776 309.035 88.68 308.459 88.488C307.915 88.296 307.403 88.056 306.923 87.768L304.475 93.048C305.403 93.592 306.379 94.024 307.403 94.344C308.427 94.664 309.611 94.824 310.955 94.824C312.043 94.824 313.003 94.696 313.835 94.44C314.667 94.184 315.403 93.768 316.043 93.192C316.715 92.616 317.323 91.864 317.867 90.936C318.411 90.04 318.923 88.936 319.403 87.624L329.291 61.272ZM378.607 87V53.4H371.311V74.088L355.567 53.4H348.751V87H356.047V65.64L372.319 87H378.607ZM412.257 60.12V53.4H386.673V87H394.065V73.992H410.097V67.272H394.065V60.12H412.257ZM443.613 60.216V53.4H415.773V60.216H425.997V87H433.389V60.216H443.613ZM467.394 79.176V79.08C467.394 77.896 467.154 76.888 466.674 76.056C466.194 75.224 465.586 74.52 464.85 73.944C464.114 73.368 463.282 72.888 462.354 72.504C461.426 72.088 460.514 71.736 459.618 71.448C458.914 71.224 458.242 71 457.602 70.776C456.994 70.552 456.45 70.328 455.97 70.104C455.49 69.848 455.106 69.592 454.818 69.336C454.53 69.048 454.386 68.728 454.386 68.376V68.28C454.386 67.768 454.61 67.352 455.058 67.032C455.506 66.68 456.178 66.504 457.074 66.504C458.002 66.504 459.074 66.728 460.29 67.176C461.506 67.592 462.754 68.168 464.034 68.904L466.818 63.864C465.41 62.936 463.858 62.216 462.162 61.704C460.498 61.16 458.85 60.888 457.218 60.888C455.906 60.888 454.674 61.064 453.522 61.416C452.402 61.768 451.41 62.296 450.546 63C449.714 63.704 449.042 64.568 448.53 65.592C448.05 66.584 447.81 67.736 447.81 69.048V69.144C447.81 70.392 448.034 71.448 448.482 72.312C448.962 73.176 449.57 73.912 450.306 74.52C451.042 75.096 451.858 75.576 452.754 75.96C453.682 76.312 454.594 76.616 455.49 76.872C456.194 77.096 456.866 77.304 457.506 77.496C458.146 77.688 458.706 77.896 459.186 78.12C459.698 78.312 460.098 78.552 460.386 78.84C460.674 79.128 460.818 79.464 460.818 79.848V79.944C460.818 80.52 460.562 80.984 460.05 81.336C459.57 81.688 458.802 81.864 457.746 81.864C456.53 81.864 455.218 81.608 453.81 81.096C452.434 80.584 451.042 79.816 449.634 78.792L446.514 83.592C448.242 84.936 450.05 85.928 451.938 86.568C453.858 87.176 455.73 87.48 457.554 87.48C458.93 87.48 460.21 87.32 461.394 87C462.61 86.648 463.666 86.136 464.562 85.464C465.458 84.792 466.146 83.944 466.626 82.92C467.138 81.864 467.394 80.616 467.394 79.176Z" fill="white"/>
</svg>
