<svg width="12" height="13" viewBox="0 0 12 13" fill="none" xmlns="http://www.w3.org/2000/svg">
<g clip-path="url(#clip0_52_1813)">
<path d="M11.048 2.20105C10.4268 1.52731 9.57449 1.15625 8.6478 1.15625C7.95511 1.15625 7.32074 1.37524 6.76227 1.8071C6.48047 2.02509 6.22513 2.29178 6 2.60306C5.77496 2.29187 5.51953 2.02509 5.23764 1.8071C4.67926 1.37524 4.04489 1.15625 3.3522 1.15625C2.42551 1.15625 1.57306 1.52731 0.951874 2.20105C0.338104 2.86691 0 3.77658 0 4.7626C0 5.77747 0.378204 6.70645 1.19019 7.68625C1.91656 8.56268 2.96054 9.45239 4.16949 10.4826C4.58231 10.8345 5.05023 11.2333 5.5361 11.6581C5.66446 11.7705 5.82916 11.8324 6 11.8324C6.17075 11.8324 6.33554 11.7705 6.46371 11.6583C6.94958 11.2334 7.41779 10.8344 7.83078 10.4824C9.03955 9.4523 10.0835 8.56268 10.8099 7.68616C11.6219 6.70645 12 5.77747 12 4.76251C12 3.77658 11.6619 2.86691 11.048 2.20105Z" fill="white"/>
</g>
<defs>
<clipPath id="clip0_52_1813">
<rect width="12" height="12" fill="white" transform="translate(0 0.5)"/>
</clipPath>
</defs>
</svg>
